<svg width="31" height="30" viewBox="0 0 31 30" fill="none" xmlns="http://www.w3.org/2000/svg">
<path d="M10.3916 3.4375C9.46019 3.81625 8.59261 4.30543 7.78679 4.87793C7.94821 5.17168 8.22049 5.4741 8.61251 5.7666C9.13392 4.87285 9.73178 4.09125 10.3916 3.4375ZM20.2251 3.4375C20.8849 4.09125 21.4827 4.87285 22.0041 5.7666C22.3962 5.4741 22.6684 5.17293 22.8299 4.87793C22.024 4.30543 21.1577 3.81625 20.2251 3.4375ZM14.0272 3.96729C12.8486 4.40729 11.7803 5.44381 10.9245 6.87256C11.8046 7.14256 12.8499 7.33318 14.0272 7.41943V3.96729ZM16.5894 3.96729V7.41943C17.7668 7.33318 18.812 7.14256 19.6921 6.87256C18.8364 5.44506 17.7681 4.40729 16.5894 3.96729ZM5.84511 6.57471C4.0413 8.50721 2.84282 10.983 2.56226 13.7305H6.38057C6.49715 11.6742 6.89766 9.76475 7.52156 8.0835C6.82336 7.641 6.26019 7.13221 5.84511 6.57471ZM24.7715 6.57471C24.3552 7.13221 23.7933 7.641 23.0951 8.0835C23.719 9.76475 24.1195 11.6742 24.2361 13.7305H28.0544C27.7751 10.983 26.5741 8.50721 24.7715 6.57471ZM9.8661 9.16748C9.38312 10.535 9.0567 12.0817 8.9478 13.7305H14.0272V9.93652C12.495 9.84027 11.0908 9.57248 9.8661 9.16748ZM20.7506 9.16748C19.5271 9.57248 18.1217 9.84027 16.5894 9.93652V13.7305H21.6689C21.56 12.0817 21.2348 10.535 20.7506 9.16748ZM2.56226 16.2305C2.84154 18.978 4.04258 21.455 5.84511 23.3862C6.26147 22.83 6.82336 22.3199 7.52156 21.8774C6.89766 20.1962 6.49715 18.2867 6.38057 16.2305H2.56226ZM8.9478 16.2305C9.0567 17.8792 9.38312 19.426 9.8661 20.7935C11.0908 20.3885 12.495 20.1207 14.0272 20.0244V16.2305H8.9478ZM16.5894 16.2305V20.0244C18.1217 20.1207 19.5258 20.3885 20.7506 20.7935C21.2335 19.4247 21.5612 17.878 21.6714 16.2305H16.5894ZM24.2361 16.2329C24.1206 18.2882 23.7187 20.1969 23.0951 21.8774C23.7933 22.3199 24.3565 22.8287 24.7715 23.3862C26.5754 21.4537 27.7751 18.9792 28.0544 16.2329H24.2361ZM14.0272 22.5415C12.8499 22.6278 11.8046 22.8184 10.9245 23.0884C11.7803 24.5159 12.8486 25.5537 14.0272 25.9937V22.5415ZM16.5894 22.5415V25.9937C17.7681 25.5537 18.8364 24.5171 19.6921 23.0884C18.8133 22.8184 17.7668 22.6278 16.5894 22.5415ZM8.61251 24.1943C8.22049 24.4868 7.94821 24.788 7.78679 25.083C8.59261 25.6555 9.45891 26.1447 10.3916 26.5234C9.73178 25.8697 9.13392 25.0881 8.61251 24.1943ZM22.0041 24.1943C21.4827 25.0881 20.8849 25.8697 20.2251 26.5234C21.1565 26.1447 22.024 25.6543 22.8299 25.083C22.6684 24.788 22.3962 24.4868 22.0041 24.1943Z" fill="#571846"/>
</svg>
