<svg width="28" height="28" viewBox="0 0 28 28" fill="none" xmlns="http://www.w3.org/2000/svg">
<path d="M7.81697 21.0676V1.75H6.32041V21.0676L3.36471 17.964L2.30664 19.075L6.53965 23.5198C6.67998 23.6671 6.87027 23.7498 7.06869 23.7498C7.26711 23.7498 7.4574 23.6671 7.59772 23.5198L11.8307 19.075L10.7727 17.964L7.81697 21.0676ZM22.3066 6.425L18.0736 1.98021C17.9333 1.83292 17.743 1.75017 17.5446 1.75017C17.3462 1.75017 17.1559 1.83292 17.0156 1.98021L12.7825 6.425L13.8406 7.536L16.7963 4.43243V23.75H18.2929V4.43243L21.2486 7.536L22.3066 6.425Z" fill="#571846" fill-opacity="0.3"/>
<path d="M7.81697 21.0676V1.75H6.32041V21.0676L3.36471 17.964L2.30664 19.075L6.53965 23.5198C6.67998 23.6671 6.87027 23.7498 7.06869 23.7498C7.26711 23.7498 7.4574 23.6671 7.59772 23.5198L11.8307 19.075L10.7727 17.964L7.81697 21.0676ZM22.3066 6.425L18.0736 1.98021C17.9333 1.83292 17.743 1.75017 17.5446 1.75017C17.3462 1.75017 17.1559 1.83292 17.0156 1.98021L12.7825 6.425L13.8406 7.536L16.7963 4.43243V23.75H18.2929V4.43243L21.2486 7.536L22.3066 6.425Z" fill="#571846" fill-opacity="0.3"/>
</svg>
