<svg width="18" height="19" viewBox="0 0 18 19" fill="none" xmlns="http://www.w3.org/2000/svg">
<g clip-path="url(#clip0_143_441)">
<path fill-rule="evenodd" clip-rule="evenodd" d="M8.35042 3.22745C6.21979 1.2416 2.80526 3.21298 3.45975 6.05108C3.57216 6.53857 3.28845 7.02998 2.81006 7.17637C0.0249481 8.02862 0.0249489 11.9714 2.81006 12.8236C3.28845 12.97 3.57216 13.4614 3.45975 13.9489C2.80526 16.787 6.21979 18.7584 8.35042 16.7726C8.71639 16.4315 9.28382 16.4315 9.64979 16.7726C11.7804 18.7584 15.1949 16.787 14.5405 13.9489C14.428 13.4614 14.7118 12.97 15.1901 12.8236C17.9753 11.9714 17.9753 8.02862 15.1901 7.17637C14.7118 7.02999 14.428 6.53857 14.5405 6.05108C15.1949 3.21298 11.7804 1.2416 9.64979 3.22745C9.28382 3.56855 8.71639 3.56855 8.35042 3.22745ZM5.4086 5.60167C5.1974 4.68583 6.29925 4.04968 6.98679 4.6905C8.12089 5.74754 9.87932 5.74754 11.0134 4.6905C11.701 4.04968 12.8028 4.68583 12.5916 5.60167C12.2432 7.11234 13.1225 8.6352 14.6049 9.08884C15.5037 9.36385 15.5037 10.6362 14.6049 10.9112C13.1225 11.3648 12.2432 12.8877 12.5916 14.3983C12.8028 15.3142 11.701 15.9503 11.0134 15.3095C9.87932 14.2525 8.12089 14.2525 6.98679 15.3095C6.29925 15.9503 5.1974 15.3142 5.4086 14.3983C5.75697 12.8877 4.87775 11.3648 3.39528 10.9112C2.49654 10.6362 2.49654 9.36385 3.39528 9.08884C4.87775 8.6352 5.75697 7.11234 5.4086 5.60167ZM9.86613 9.5C10.1423 9.9783 9.9784 10.5899 9.5001 10.866C9.02181 11.1422 8.41022 10.9783 8.13408 10.5C7.85794 10.0217 8.02181 9.41012 8.5001 9.13398C8.9784 8.85784 9.58999 9.02171 9.86613 9.5ZM11.5982 8.5C12.4266 9.93488 11.935 11.7697 10.5001 12.5981C9.06523 13.4265 7.23046 12.9349 6.40203 11.5C5.5736 10.0651 6.06523 8.23035 7.5001 7.40193C8.93498 6.5735 10.7698 7.06513 11.5982 8.5Z" fill="#571846"/>
</g>
<defs>
<clipPath id="clip0_143_441">
<rect width="17.5785" height="18" fill="white" transform="translate(0.298096 0.0413818)"/>
</clipPath>
</defs>
</svg>
